<svg fill="none" height="24" viewBox="0 0 24 24" width="24" xmlns="http://www.w3.org/2000/svg"><path d="M12 5.813a3.781 3.781 0 1 0 0 7.562 3.781 3.781 0 0 0 0-7.563zm0 5.5a1.718 1.718 0 1 1-.001-3.438A1.718 1.718 0 0 1 12 11.312zM12 1C5.924 1 1 5.924 1 12s4.924 11 11 11 11-4.924 11-11S18.076 1 12 1zm0 19.938a8.875 8.875 0 0 1-5.35-1.796 4.28 4.28 0 0 1 3.812-2.33h3.08c1.622 0 3.064.903 3.81 2.33A8.894 8.894 0 0 1 12 20.938zm6.884-3.245c-1.16-1.813-3.137-2.943-5.346-2.943h-3.076c-2.207 0-4.183 1.128-5.346 2.942A8.89 8.89 0 0 1 3.063 12c0-4.929 4.009-8.938 8.937-8.938 4.928 0 8.938 4.01 8.938 8.938a8.904 8.904 0 0 1-2.054 5.693z" fill="#222"/></svg>