<svg fill="none" height="24" viewBox="0 0 24 24" width="24" xmlns="http://www.w3.org/2000/svg"><path d="M4.681 2.184c.441 0 .82.314.905.748l.057.479h16.132c.778 0 1.4.776 1.18 1.559l-2.07 7.364c-.15.529-.633.893-1.18.893H7.544l.353 1.84h11.814c.51 0 .92.41.92.92s-.41.921-.92.921H7.1c-.407 0-.787-.314-.87-.748L3.92 4.024h-2a.92.92 0 0 1 0-1.84zm14.555 9.203l1.726-6.136H6.027l1.17 6.136zM5.908 19.976a1.841 1.841 0 1 1 3.682 0 1.841 1.841 0 0 1-3.682 0zm14.724 0a1.841 1.841 0 1 1-3.682-.001 1.841 1.841 0 0 1 3.682 0z" fill="#222"/></svg>